<?xml version="1.0" encoding="UTF-8"?><svg id="Layer_1" xmlns="http://www.w3.org/2000/svg" viewBox="0 0 497.33 350.17"><defs><style>.cls-1{fill:#fff;}.cls-1,.cls-2,.cls-3{stroke:#231f20;stroke-miterlimit:10;stroke-width:3px;}.cls-2{fill:none;}.cls-3{fill:#231f20;}</style></defs><path class="cls-2" d="M398.85,140.79s-43.23-35.74-55.83-42.89-22.81-15.66-35.06-18.72c-12.26-3.06-4.09-3.06-17.02-3.4,0,0-27.91,5.53-38.38,13.96-10.47,8.43-24.77,15.57-35.23,27.83-10.47,12.26-18.13,12.26-33.96,18.64-15.83,6.38-35.23,15.57-35.23,15.57l-41.36,19.66s-18.89,6.38-22.21,4.34c-3.32-2.04-17.62-14.81-17.62-14.81l-20.68-26.04s3.57,11.23,0,15.57-17.36-6.13-17.36-6.13c0,0,7.4,6.13,10.72,14.04,3.32,7.91-24.26-.26-24.26-.26,0,0,17.36,9.96,16.34,15.06S.3,176.17,.3,176.17c0,0,28.09,5.72,30.38,13.13,2.3,7.4-30.38,12.26-30.38,12.26,0,0,41.87-3.06,37.02,3.83-4.85,6.89-12,8.43-12,8.43,0,0,22.21-6.89,19.91,1.53-2.3,8.43-16.34,17.11-16.34,17.11,0,0,16.09-7.15,23.23-4.6,7.15,2.55-20.94,20.68-20.94,20.68,0,0,27.57-11.49,28.6-7.66,1.02,3.83-24.26,23.49-24.26,23.49,0,0,29.11-15.06,31.4-10.47,2.3,4.6-5.36,16.34-5.36,16.34,0,0,10.21-10.98,17.11-8.68,6.89,2.3-1.02,26.04-1.02,26.04,0,0,12-56.17,16.09-62.55,4.09-6.38,5.62-8.43,8.68-8.68s136.85,82.47,136.85,82.47c0,0,28.34,15.83,32.94,15.32,4.6-.51,46.47,7.4,46.47,7.4,0,0,24.77,0,25.28-1.53,.51-1.53,77.36-30.38,77.36-30.38,0,0,17.62-11.74,19.66-15.57,2.04-3.83,14.3-49.79,14.3-49.79,0,0-17.36,42.64-20.17,43.15-2.81,.51,6.13-39.32,6.13-39.32,0,0-16.85,42.13-18.13,42.13s3.83-35.23,3.83-35.23c0,0-11.23,38.3-13.02,37.53-1.79-.77-1.79-29.62-1.79-29.62,0,0-6.64,34.47-10.21,34.47s-2.55-32.68-2.55-32.68c0,0-5.87,33.45-8.17,33.45s-9.19-26.55-9.19-26.55l-1.02,27.83-9.96-21.96,1.53,24.26-9.45-20.17,1.02,20.17-7.91-19.66-1.02,20.68s-5.87,2.55-14.04-.51c-8.17-3.06-35.74-17.11-35.74-17.11l27.32-34.98,12.51,11.23s-10.21-18.13-7.15-18.89c3.06-.77,17.36,20.17,17.36,20.17,0,0-16.85-30.13-13.28-27.83,3.57,2.3,22.21,23.23,22.21,23.23,0,0-20.68-33.7-15.83-29.62,4.85,4.09,26.81,26.81,26.81,26.81,0,0-29.36-42.38-19.66-35.49s32.94,35.23,32.94,35.23c0,0-37.28-52.85-27.83-43.91,9.45,8.94,36.51,36.51,36.51,36.51,0,0-43.15-55.96-31.91-44.57s41.87,35.64,41.87,35.64c0,0-56.17-63.06-33.96-49.02,22.21,14.04,48,48.77,48,48.77,0,0-61.79-81.96-43.4-59.74,18.38,22.21,55.4,50.04,55.4,50.04,0,0-57.19-65.62-46.47-57.96,10.72,7.66,54.89,50.3,54.89,50.3l-42.89-60.26Z"/><path class="cls-2" d="M326,83.94c-2.31-5.07-.26-8.58,2.89-31.15,.33-2.35,.34-2.56,.51-3.23,2.59-10.29,13.52-15.66,18.38-18.04,13.42-6.59,26.12-6.01,33.02-5.62,15.55,.89,26.53,6.16,31.66,8.68,5.09,2.51,19.43,9.75,24,20.94,.86,2.09,1.36,4.26,1.36,4.26,1.79,7.64-.15,13.89-1.02,17.36-.79,3.13-3.82,15.16-.68,26.21,2.66,9.38,9.52,17.23,17.02,19.57,1.62,.51,3.62,1.1,5.96,.51,4.29-1.09,4.92-4.97,10.21-9.02,2.4-1.83,5.08-3.89,8.51-4.09,8.1-.47,14.04,9.78,14.47,10.55,3.73,6.64,5.45,17.41,.34,21.28-3.1,2.35-7.6,1.31-8.85,1.02-5.72-1.32-5.55-4.99-13.62-9.53-4.31-2.42-8.62-3.78-10.72-4.43-3.42-1.06-4.93-1.2-6.81-1.7-8.79-2.35-14.43-9.54-15.49-10.89-5.99-7.64-6.35-16.21-6.64-23.15-.57-13.63,3.94-15.12,2.38-25.7-.48-3.24-2.51-14.08-11.4-21.96-4.8-4.25-9.67-5.73-19.4-8.68-13.33-4.05-23.26-4.09-25.36-4.09-8.19,.03-12.94,.05-18.38,2.89-8.38,4.38-12.11,12.15-13.79,15.66-3.81,7.96-4.22,15.56-4.6,22.47-.64,11.87,1.39,17.18-1.19,18.55-2.88,1.53-10-2.61-12.77-8.68Z"/><path class="cls-2" d="M309.46,79.58l18.93-43.98s-6.47,7.15-8.94,4.6-2.13-15.49-2.13-15.49c0,0-9.87,6.3-16.68,3.57s-10.04-15.83-10.04-15.83c0,0-6.64,11.06-14.13,9.36s-11.23-16.68-11.23-16.68c0,0-4.94,13.62-13.28,13.79s-17.7-11.57-17.7-11.57c0,0,1.02,20.77-4.26,20.77s-25.36-12.09-25.36-12.09c0,0,6.13,16.34,1.53,17.87s-19.23,4.09-19.23,4.09c0,0,15.15,11.91,6.47,15.66s-14.98,6.13-14.98,6.13c0,0,7.15,4.6,6.13,12.94s-15.83,9.7-15.83,9.7c0,0,19.57,10.04,16.17,14.98s-8,10.21-8,10.21c0,0,12.43,4.6,11.74,10.21s-1.19,16.8-1.19,16.8"/><path class="cls-2" d="M197.12,272.88l-24.65-1.36s22.64,5.62,19.4,8.85-13.28,8.85-13.28,8.85c0,0,26.89,.51,19.4,10.72-7.49,10.21-14.81,11.06-14.81,11.06,0,0,32.68,.85,34.04,4.94,1.36,4.09-5.96,14.98-5.96,14.98,0,0,28.6-11.06,28.26-3.91-.34,7.15-4.77,9.87-4.77,9.87,0,0,17.87-14.3,21.62-7.66s0,10.21,0,10.21c0,0,14.98-22.13,20.09-17.87s6.13,6.64,6.13,6.64l3.23-12.42"/><path class="cls-2" d="M260.3,204.62l-25.53-35.23s3.57,15.32-2.04,15.15-29.11-18.38-29.11-18.38c0,0,20.26,20.43,12.09,26.04s-12.09,5.28-12.09,5.28c0,0,13.62,5.28,10.72,9.87s-24-.85-24-.85c0,0,24.34,14.81,19.74,19.74s-17.02,7.66-17.02,7.66c0,0,24.51,4.94,20.77,10.55s-12.6,12.09-12.6,12.09c0,0,26.55,3.4,23.15,8.68s-3.74,9.36-3.74,9.36l42.89-11.06"/><path class="cls-3" d="M310.68,134.49c6.41-9.43,17.06-11.24,19.06-11.57,2.94-.5,11.22-1.9,18.55,2.89,10.56,6.91,10.68,21.15,10.72,26.21,.05,5.6,.12,14.07-6.3,21.11-7.95,8.71-19.33,8.07-20.26,8-13.09-.96-19.9-12.2-21.28-14.47-5.09-8.4-7.62-21.72-.51-32.17Z"/><path class="cls-1" d="M330.6,142.15c.99-3.85,4.29-8.79,9.19-9.19,4.15-.34,7.21,2.77,8,3.57,4.31,4.38,6.11,12.78,1.7,18.21-2.13,2.63-6.03,4.96-10.04,4.26-6.64-1.16-10.58-10.11-8.85-16.85Z"/><path class="cls-1" d="M318.17,139.77c1.4-2.31,4.44-4.45,6.47-3.57,2.4,1.04,3.06,6.21,.85,9.36-1.59,2.27-4.98,3.92-6.98,2.72-2.23-1.33-2.01-5.76-.34-8.51Z"/></svg>