<?xml version="1.0" encoding="UTF-8"?><svg id="Layer_1" xmlns="http://www.w3.org/2000/svg" viewBox="0 0 51.67 21.19"><defs><style>.cls-1{fill:#fff;}</style></defs><path class="cls-1" d="M32.28,21.19l-.43-.87c-.03-.05-2.68-5.37-6.98-5.83-4.36-.46-10.49,4.15-10.54,4.2v-.3c.25-.21,5.92-5.5,10.63-5,3.76,.4,6.29,3.96,7.26,5.58,.68-1.4,2.19-4.28,4.02-6.21,3.08-3.25,7.38-2.04,8.62-1.59,2.03,.73,5.24,3.12,5.38,3.21l-.11,.24s-3.6-1.71-5.54-2.41c-1.13-.41-5.02-1.51-7.73,1.36-2.31,2.44-4.18,6.68-4.19,6.72l-.39,.9Z"/><path class="cls-1" d="M19.2,9.66l-.46-.79s-2.87-4.89-7.46-5.3C6.62,3.14,.06,7.34,0,7.39v-.28c.27-.19,6.33-5,11.37-4.55,4.02,.37,6.73,3.6,7.77,5.08,.73-1.28,2.35-3.9,4.3-5.65,3.29-2.96,7.89-1.86,9.23-1.45,2.17,.67,5.6,2.84,5.75,2.92l-.12,.22s-3.85-1.55-5.93-2.19c-1.21-.37-5.37-1.37-8.26,1.23-2.47,2.22-4.47,6.07-4.49,6.11l-.42,.82Z"/><path class="cls-1" d="M36.65,12.18l-.36-.75s-2.24-4.6-5.83-5c-3.64-.4-8.77,3.56-8.82,3.6v-.26c.21-.18,4.95-4.71,8.89-4.28,3.14,.34,5.26,3.39,6.07,4.78,.57-1.2,1.83-3.67,3.36-5.32,2.57-2.79,6.17-1.75,7.21-1.36,1.7,.63,4.38,2.68,4.5,2.75l-.09,.21s-3.01-1.46-4.63-2.06c-.94-.35-4.19-1.29-6.46,1.16-1.93,2.09-3.49,5.72-3.51,5.76l-.33,.77Z"/></svg>