<?xml version="1.0" encoding="UTF-8"?><svg id="Layer_1" xmlns="http://www.w3.org/2000/svg" viewBox="0 0 800.34 97.24"><defs><style>.cls-1{fill:#0e004a;}</style></defs><path class="cls-1" d="M0,35.75C32.48,7.62,57.94,2.82,75.8,4.21c23.84,1.85,28.3,14.28,56.5,17.52,34.25,3.93,40.54-12.93,77.86-14.02,42.43-1.24,45.13,20.24,84.07,18.22C335.27,23.81,338.76-.39,375.54,0c41.04,.44,42.43,30.63,83.38,31.54,39.49,.88,54.8-26.82,95.78-18.22,18.12,3.8,16.27,9.46,33.07,11.92,37.78,5.52,47.2-23.06,85.44-23.83,31.17-.63,36.58,18.12,79.24,21.03,20.21,1.38,36.92-1.61,47.55-4.21l.34,79.01H0V35.75Z"/></svg>